%TF.GenerationSoftware,KiCad,Pcbnew,10.0.3*%
%TF.CreationDate,2026-06-09T15:52:31+08:00*%
%TF.ProjectId,ProPrj_________________2026-06-08,50726f50-726a-45f1-9435-5b1829b73e3a,rev?*%
%TF.SameCoordinates,Original*%
%TF.FileFunction,AssemblyDrawing,Bot*%
%FSLAX46Y46*%
G04 Gerber Fmt 4.6, Leading zero omitted, Abs format (unit mm)*
G04 Created by KiCad (PCBNEW 10.0.3) date 2026-06-09 15:52:31*
%MOMM*%
%LPD*%
G01*
G04 APERTURE LIST*
%ADD10C,0.150000*%
G04 APERTURE END LIST*
D10*
X107369047Y-85954819D02*
X107940475Y-85954819D01*
X107654761Y-85954819D02*
X107654761Y-84954819D01*
X107654761Y-84954819D02*
X107749999Y-85097676D01*
X107749999Y-85097676D02*
X107845237Y-85192914D01*
X107845237Y-85192914D02*
X107940475Y-85240533D01*
X106940475Y-85954819D02*
X106940475Y-84954819D01*
X106845237Y-85573866D02*
X106559523Y-85954819D01*
X106559523Y-85288152D02*
X106940475Y-85669104D01*
X109845238Y-85954819D02*
X110416666Y-85954819D01*
X110130952Y-85954819D02*
X110130952Y-84954819D01*
X110130952Y-84954819D02*
X110226190Y-85097676D01*
X110226190Y-85097676D02*
X110321428Y-85192914D01*
X110321428Y-85192914D02*
X110416666Y-85240533D01*
X109226190Y-84954819D02*
X109130952Y-84954819D01*
X109130952Y-84954819D02*
X109035714Y-85002438D01*
X109035714Y-85002438D02*
X108988095Y-85050057D01*
X108988095Y-85050057D02*
X108940476Y-85145295D01*
X108940476Y-85145295D02*
X108892857Y-85335771D01*
X108892857Y-85335771D02*
X108892857Y-85573866D01*
X108892857Y-85573866D02*
X108940476Y-85764342D01*
X108940476Y-85764342D02*
X108988095Y-85859580D01*
X108988095Y-85859580D02*
X109035714Y-85907200D01*
X109035714Y-85907200D02*
X109130952Y-85954819D01*
X109130952Y-85954819D02*
X109226190Y-85954819D01*
X109226190Y-85954819D02*
X109321428Y-85907200D01*
X109321428Y-85907200D02*
X109369047Y-85859580D01*
X109369047Y-85859580D02*
X109416666Y-85764342D01*
X109416666Y-85764342D02*
X109464285Y-85573866D01*
X109464285Y-85573866D02*
X109464285Y-85335771D01*
X109464285Y-85335771D02*
X109416666Y-85145295D01*
X109416666Y-85145295D02*
X109369047Y-85050057D01*
X109369047Y-85050057D02*
X109321428Y-85002438D01*
X109321428Y-85002438D02*
X109226190Y-84954819D01*
X108464285Y-85954819D02*
X108464285Y-84954819D01*
X108369047Y-85573866D02*
X108083333Y-85954819D01*
X108083333Y-85288152D02*
X108464285Y-85669104D01*
X96547619Y-85954819D02*
X97119047Y-85954819D01*
X96833333Y-85954819D02*
X96833333Y-84954819D01*
X96833333Y-84954819D02*
X96928571Y-85097676D01*
X96928571Y-85097676D02*
X97023809Y-85192914D01*
X97023809Y-85192914D02*
X97119047Y-85240533D01*
X95928571Y-84954819D02*
X95833333Y-84954819D01*
X95833333Y-84954819D02*
X95738095Y-85002438D01*
X95738095Y-85002438D02*
X95690476Y-85050057D01*
X95690476Y-85050057D02*
X95642857Y-85145295D01*
X95642857Y-85145295D02*
X95595238Y-85335771D01*
X95595238Y-85335771D02*
X95595238Y-85573866D01*
X95595238Y-85573866D02*
X95642857Y-85764342D01*
X95642857Y-85764342D02*
X95690476Y-85859580D01*
X95690476Y-85859580D02*
X95738095Y-85907200D01*
X95738095Y-85907200D02*
X95833333Y-85954819D01*
X95833333Y-85954819D02*
X95928571Y-85954819D01*
X95928571Y-85954819D02*
X96023809Y-85907200D01*
X96023809Y-85907200D02*
X96071428Y-85859580D01*
X96071428Y-85859580D02*
X96119047Y-85764342D01*
X96119047Y-85764342D02*
X96166666Y-85573866D01*
X96166666Y-85573866D02*
X96166666Y-85335771D01*
X96166666Y-85335771D02*
X96119047Y-85145295D01*
X96119047Y-85145295D02*
X96071428Y-85050057D01*
X96071428Y-85050057D02*
X96023809Y-85002438D01*
X96023809Y-85002438D02*
X95928571Y-84954819D01*
X94976190Y-84954819D02*
X94880952Y-84954819D01*
X94880952Y-84954819D02*
X94785714Y-85002438D01*
X94785714Y-85002438D02*
X94738095Y-85050057D01*
X94738095Y-85050057D02*
X94690476Y-85145295D01*
X94690476Y-85145295D02*
X94642857Y-85335771D01*
X94642857Y-85335771D02*
X94642857Y-85573866D01*
X94642857Y-85573866D02*
X94690476Y-85764342D01*
X94690476Y-85764342D02*
X94738095Y-85859580D01*
X94738095Y-85859580D02*
X94785714Y-85907200D01*
X94785714Y-85907200D02*
X94880952Y-85954819D01*
X94880952Y-85954819D02*
X94976190Y-85954819D01*
X94976190Y-85954819D02*
X95071428Y-85907200D01*
X95071428Y-85907200D02*
X95119047Y-85859580D01*
X95119047Y-85859580D02*
X95166666Y-85764342D01*
X95166666Y-85764342D02*
X95214285Y-85573866D01*
X95214285Y-85573866D02*
X95214285Y-85335771D01*
X95214285Y-85335771D02*
X95166666Y-85145295D01*
X95166666Y-85145295D02*
X95119047Y-85050057D01*
X95119047Y-85050057D02*
X95071428Y-85002438D01*
X95071428Y-85002438D02*
X94976190Y-84954819D01*
X94214285Y-85288152D02*
X94214285Y-85954819D01*
X94214285Y-85383390D02*
X94166666Y-85335771D01*
X94166666Y-85335771D02*
X94071428Y-85288152D01*
X94071428Y-85288152D02*
X93928571Y-85288152D01*
X93928571Y-85288152D02*
X93833333Y-85335771D01*
X93833333Y-85335771D02*
X93785714Y-85431009D01*
X93785714Y-85431009D02*
X93785714Y-85954819D01*
X92976190Y-85431009D02*
X93309523Y-85431009D01*
X93309523Y-85954819D02*
X93309523Y-84954819D01*
X93309523Y-84954819D02*
X92833333Y-84954819D01*
X111988094Y-41414819D02*
X111988094Y-40414819D01*
X111988094Y-40414819D02*
X111607142Y-40414819D01*
X111607142Y-40414819D02*
X111511904Y-40462438D01*
X111511904Y-40462438D02*
X111464285Y-40510057D01*
X111464285Y-40510057D02*
X111416666Y-40605295D01*
X111416666Y-40605295D02*
X111416666Y-40748152D01*
X111416666Y-40748152D02*
X111464285Y-40843390D01*
X111464285Y-40843390D02*
X111511904Y-40891009D01*
X111511904Y-40891009D02*
X111607142Y-40938628D01*
X111607142Y-40938628D02*
X111988094Y-40938628D01*
X111083332Y-40414819D02*
X110416666Y-40414819D01*
X110416666Y-40414819D02*
X111083332Y-41414819D01*
X111083332Y-41414819D02*
X110416666Y-41414819D01*
X110083332Y-40510057D02*
X110035713Y-40462438D01*
X110035713Y-40462438D02*
X109940475Y-40414819D01*
X109940475Y-40414819D02*
X109702380Y-40414819D01*
X109702380Y-40414819D02*
X109607142Y-40462438D01*
X109607142Y-40462438D02*
X109559523Y-40510057D01*
X109559523Y-40510057D02*
X109511904Y-40605295D01*
X109511904Y-40605295D02*
X109511904Y-40700533D01*
X109511904Y-40700533D02*
X109559523Y-40843390D01*
X109559523Y-40843390D02*
X110130951Y-41414819D01*
X110130951Y-41414819D02*
X109511904Y-41414819D01*
X108607142Y-40414819D02*
X109083332Y-40414819D01*
X109083332Y-40414819D02*
X109130951Y-40891009D01*
X109130951Y-40891009D02*
X109083332Y-40843390D01*
X109083332Y-40843390D02*
X108988094Y-40795771D01*
X108988094Y-40795771D02*
X108749999Y-40795771D01*
X108749999Y-40795771D02*
X108654761Y-40843390D01*
X108654761Y-40843390D02*
X108607142Y-40891009D01*
X108607142Y-40891009D02*
X108559523Y-40986247D01*
X108559523Y-40986247D02*
X108559523Y-41224342D01*
X108559523Y-41224342D02*
X108607142Y-41319580D01*
X108607142Y-41319580D02*
X108654761Y-41367200D01*
X108654761Y-41367200D02*
X108749999Y-41414819D01*
X108749999Y-41414819D02*
X108988094Y-41414819D01*
X108988094Y-41414819D02*
X109083332Y-41367200D01*
X109083332Y-41367200D02*
X109130951Y-41319580D01*
X107702380Y-40748152D02*
X107702380Y-41414819D01*
X107940475Y-40367200D02*
X108178570Y-41081485D01*
X108178570Y-41081485D02*
X107559523Y-41081485D01*
X107321427Y-40414819D02*
X106988094Y-41414819D01*
X106988094Y-41414819D02*
X106654761Y-40414819D01*
X106321427Y-41033866D02*
X105559523Y-41033866D01*
X104559523Y-41414819D02*
X105130951Y-41414819D01*
X104845237Y-41414819D02*
X104845237Y-40414819D01*
X104845237Y-40414819D02*
X104940475Y-40557676D01*
X104940475Y-40557676D02*
X105035713Y-40652914D01*
X105035713Y-40652914D02*
X105130951Y-40700533D01*
X104178570Y-40510057D02*
X104130951Y-40462438D01*
X104130951Y-40462438D02*
X104035713Y-40414819D01*
X104035713Y-40414819D02*
X103797618Y-40414819D01*
X103797618Y-40414819D02*
X103702380Y-40462438D01*
X103702380Y-40462438D02*
X103654761Y-40510057D01*
X103654761Y-40510057D02*
X103607142Y-40605295D01*
X103607142Y-40605295D02*
X103607142Y-40700533D01*
X103607142Y-40700533D02*
X103654761Y-40843390D01*
X103654761Y-40843390D02*
X104226189Y-41414819D01*
X104226189Y-41414819D02*
X103607142Y-41414819D01*
X103178570Y-41033866D02*
X102416666Y-41033866D01*
X101416666Y-41414819D02*
X101988094Y-41414819D01*
X101702380Y-41414819D02*
X101702380Y-40414819D01*
X101702380Y-40414819D02*
X101797618Y-40557676D01*
X101797618Y-40557676D02*
X101892856Y-40652914D01*
X101892856Y-40652914D02*
X101988094Y-40700533D01*
X100845237Y-40843390D02*
X100940475Y-40795771D01*
X100940475Y-40795771D02*
X100988094Y-40748152D01*
X100988094Y-40748152D02*
X101035713Y-40652914D01*
X101035713Y-40652914D02*
X101035713Y-40605295D01*
X101035713Y-40605295D02*
X100988094Y-40510057D01*
X100988094Y-40510057D02*
X100940475Y-40462438D01*
X100940475Y-40462438D02*
X100845237Y-40414819D01*
X100845237Y-40414819D02*
X100654761Y-40414819D01*
X100654761Y-40414819D02*
X100559523Y-40462438D01*
X100559523Y-40462438D02*
X100511904Y-40510057D01*
X100511904Y-40510057D02*
X100464285Y-40605295D01*
X100464285Y-40605295D02*
X100464285Y-40652914D01*
X100464285Y-40652914D02*
X100511904Y-40748152D01*
X100511904Y-40748152D02*
X100559523Y-40795771D01*
X100559523Y-40795771D02*
X100654761Y-40843390D01*
X100654761Y-40843390D02*
X100845237Y-40843390D01*
X100845237Y-40843390D02*
X100940475Y-40891009D01*
X100940475Y-40891009D02*
X100988094Y-40938628D01*
X100988094Y-40938628D02*
X101035713Y-41033866D01*
X101035713Y-41033866D02*
X101035713Y-41224342D01*
X101035713Y-41224342D02*
X100988094Y-41319580D01*
X100988094Y-41319580D02*
X100940475Y-41367200D01*
X100940475Y-41367200D02*
X100845237Y-41414819D01*
X100845237Y-41414819D02*
X100654761Y-41414819D01*
X100654761Y-41414819D02*
X100559523Y-41367200D01*
X100559523Y-41367200D02*
X100511904Y-41319580D01*
X100511904Y-41319580D02*
X100464285Y-41224342D01*
X100464285Y-41224342D02*
X100464285Y-41033866D01*
X100464285Y-41033866D02*
X100511904Y-40938628D01*
X100511904Y-40938628D02*
X100559523Y-40891009D01*
X100559523Y-40891009D02*
X100654761Y-40843390D01*
X100035713Y-41414819D02*
X100035713Y-40414819D01*
X100035713Y-40414819D02*
X99654761Y-40414819D01*
X99654761Y-40414819D02*
X99559523Y-40462438D01*
X99559523Y-40462438D02*
X99511904Y-40510057D01*
X99511904Y-40510057D02*
X99464285Y-40605295D01*
X99464285Y-40605295D02*
X99464285Y-40748152D01*
X99464285Y-40748152D02*
X99511904Y-40843390D01*
X99511904Y-40843390D02*
X99559523Y-40891009D01*
X99559523Y-40891009D02*
X99654761Y-40938628D01*
X99654761Y-40938628D02*
X100035713Y-40938628D01*
X101890476Y-92454819D02*
X102461904Y-92454819D01*
X102176190Y-92454819D02*
X102176190Y-91454819D01*
X102176190Y-91454819D02*
X102271428Y-91597676D01*
X102271428Y-91597676D02*
X102366666Y-91692914D01*
X102366666Y-91692914D02*
X102461904Y-91740533D01*
X101271428Y-91454819D02*
X101176190Y-91454819D01*
X101176190Y-91454819D02*
X101080952Y-91502438D01*
X101080952Y-91502438D02*
X101033333Y-91550057D01*
X101033333Y-91550057D02*
X100985714Y-91645295D01*
X100985714Y-91645295D02*
X100938095Y-91835771D01*
X100938095Y-91835771D02*
X100938095Y-92073866D01*
X100938095Y-92073866D02*
X100985714Y-92264342D01*
X100985714Y-92264342D02*
X101033333Y-92359580D01*
X101033333Y-92359580D02*
X101080952Y-92407200D01*
X101080952Y-92407200D02*
X101176190Y-92454819D01*
X101176190Y-92454819D02*
X101271428Y-92454819D01*
X101271428Y-92454819D02*
X101366666Y-92407200D01*
X101366666Y-92407200D02*
X101414285Y-92359580D01*
X101414285Y-92359580D02*
X101461904Y-92264342D01*
X101461904Y-92264342D02*
X101509523Y-92073866D01*
X101509523Y-92073866D02*
X101509523Y-91835771D01*
X101509523Y-91835771D02*
X101461904Y-91645295D01*
X101461904Y-91645295D02*
X101414285Y-91550057D01*
X101414285Y-91550057D02*
X101366666Y-91502438D01*
X101366666Y-91502438D02*
X101271428Y-91454819D01*
X99938095Y-92454819D02*
X100271428Y-91978628D01*
X100509523Y-92454819D02*
X100509523Y-91454819D01*
X100509523Y-91454819D02*
X100128571Y-91454819D01*
X100128571Y-91454819D02*
X100033333Y-91502438D01*
X100033333Y-91502438D02*
X99985714Y-91550057D01*
X99985714Y-91550057D02*
X99938095Y-91645295D01*
X99938095Y-91645295D02*
X99938095Y-91788152D01*
X99938095Y-91788152D02*
X99985714Y-91883390D01*
X99985714Y-91883390D02*
X100033333Y-91931009D01*
X100033333Y-91931009D02*
X100128571Y-91978628D01*
X100128571Y-91978628D02*
X100509523Y-91978628D01*
X106440509Y-85907200D02*
X106297652Y-85954819D01*
X106297652Y-85954819D02*
X106059557Y-85954819D01*
X106059557Y-85954819D02*
X105964319Y-85907200D01*
X105964319Y-85907200D02*
X105916700Y-85859580D01*
X105916700Y-85859580D02*
X105869081Y-85764342D01*
X105869081Y-85764342D02*
X105869081Y-85669104D01*
X105869081Y-85669104D02*
X105916700Y-85573866D01*
X105916700Y-85573866D02*
X105964319Y-85526247D01*
X105964319Y-85526247D02*
X106059557Y-85478628D01*
X106059557Y-85478628D02*
X106250033Y-85431009D01*
X106250033Y-85431009D02*
X106345271Y-85383390D01*
X106345271Y-85383390D02*
X106392890Y-85335771D01*
X106392890Y-85335771D02*
X106440509Y-85240533D01*
X106440509Y-85240533D02*
X106440509Y-85145295D01*
X106440509Y-85145295D02*
X106392890Y-85050057D01*
X106392890Y-85050057D02*
X106345271Y-85002438D01*
X106345271Y-85002438D02*
X106250033Y-84954819D01*
X106250033Y-84954819D02*
X106011938Y-84954819D01*
X106011938Y-84954819D02*
X105869081Y-85002438D01*
X105297652Y-85383390D02*
X105392890Y-85335771D01*
X105392890Y-85335771D02*
X105440509Y-85288152D01*
X105440509Y-85288152D02*
X105488128Y-85192914D01*
X105488128Y-85192914D02*
X105488128Y-85145295D01*
X105488128Y-85145295D02*
X105440509Y-85050057D01*
X105440509Y-85050057D02*
X105392890Y-85002438D01*
X105392890Y-85002438D02*
X105297652Y-84954819D01*
X105297652Y-84954819D02*
X105107176Y-84954819D01*
X105107176Y-84954819D02*
X105011938Y-85002438D01*
X105011938Y-85002438D02*
X104964319Y-85050057D01*
X104964319Y-85050057D02*
X104916700Y-85145295D01*
X104916700Y-85145295D02*
X104916700Y-85192914D01*
X104916700Y-85192914D02*
X104964319Y-85288152D01*
X104964319Y-85288152D02*
X105011938Y-85335771D01*
X105011938Y-85335771D02*
X105107176Y-85383390D01*
X105107176Y-85383390D02*
X105297652Y-85383390D01*
X105297652Y-85383390D02*
X105392890Y-85431009D01*
X105392890Y-85431009D02*
X105440509Y-85478628D01*
X105440509Y-85478628D02*
X105488128Y-85573866D01*
X105488128Y-85573866D02*
X105488128Y-85764342D01*
X105488128Y-85764342D02*
X105440509Y-85859580D01*
X105440509Y-85859580D02*
X105392890Y-85907200D01*
X105392890Y-85907200D02*
X105297652Y-85954819D01*
X105297652Y-85954819D02*
X105107176Y-85954819D01*
X105107176Y-85954819D02*
X105011938Y-85907200D01*
X105011938Y-85907200D02*
X104964319Y-85859580D01*
X104964319Y-85859580D02*
X104916700Y-85764342D01*
X104916700Y-85764342D02*
X104916700Y-85573866D01*
X104916700Y-85573866D02*
X104964319Y-85478628D01*
X104964319Y-85478628D02*
X105011938Y-85431009D01*
X105011938Y-85431009D02*
X105107176Y-85383390D01*
X104297652Y-84954819D02*
X104202414Y-84954819D01*
X104202414Y-84954819D02*
X104107176Y-85002438D01*
X104107176Y-85002438D02*
X104059557Y-85050057D01*
X104059557Y-85050057D02*
X104011938Y-85145295D01*
X104011938Y-85145295D02*
X103964319Y-85335771D01*
X103964319Y-85335771D02*
X103964319Y-85573866D01*
X103964319Y-85573866D02*
X104011938Y-85764342D01*
X104011938Y-85764342D02*
X104059557Y-85859580D01*
X104059557Y-85859580D02*
X104107176Y-85907200D01*
X104107176Y-85907200D02*
X104202414Y-85954819D01*
X104202414Y-85954819D02*
X104297652Y-85954819D01*
X104297652Y-85954819D02*
X104392890Y-85907200D01*
X104392890Y-85907200D02*
X104440509Y-85859580D01*
X104440509Y-85859580D02*
X104488128Y-85764342D01*
X104488128Y-85764342D02*
X104535747Y-85573866D01*
X104535747Y-85573866D02*
X104535747Y-85335771D01*
X104535747Y-85335771D02*
X104488128Y-85145295D01*
X104488128Y-85145295D02*
X104440509Y-85050057D01*
X104440509Y-85050057D02*
X104392890Y-85002438D01*
X104392890Y-85002438D02*
X104297652Y-84954819D01*
X103059557Y-84954819D02*
X103535747Y-84954819D01*
X103535747Y-84954819D02*
X103583366Y-85431009D01*
X103583366Y-85431009D02*
X103535747Y-85383390D01*
X103535747Y-85383390D02*
X103440509Y-85335771D01*
X103440509Y-85335771D02*
X103202414Y-85335771D01*
X103202414Y-85335771D02*
X103107176Y-85383390D01*
X103107176Y-85383390D02*
X103059557Y-85431009D01*
X103059557Y-85431009D02*
X103011938Y-85526247D01*
X103011938Y-85526247D02*
X103011938Y-85764342D01*
X103011938Y-85764342D02*
X103059557Y-85859580D01*
X103059557Y-85859580D02*
X103107176Y-85907200D01*
X103107176Y-85907200D02*
X103202414Y-85954819D01*
X103202414Y-85954819D02*
X103440509Y-85954819D01*
X103440509Y-85954819D02*
X103535747Y-85907200D01*
X103535747Y-85907200D02*
X103583366Y-85859580D01*
X102392890Y-84954819D02*
X102297652Y-84954819D01*
X102297652Y-84954819D02*
X102202414Y-85002438D01*
X102202414Y-85002438D02*
X102154795Y-85050057D01*
X102154795Y-85050057D02*
X102107176Y-85145295D01*
X102107176Y-85145295D02*
X102059557Y-85335771D01*
X102059557Y-85335771D02*
X102059557Y-85573866D01*
X102059557Y-85573866D02*
X102107176Y-85764342D01*
X102107176Y-85764342D02*
X102154795Y-85859580D01*
X102154795Y-85859580D02*
X102202414Y-85907200D01*
X102202414Y-85907200D02*
X102297652Y-85954819D01*
X102297652Y-85954819D02*
X102392890Y-85954819D01*
X102392890Y-85954819D02*
X102488128Y-85907200D01*
X102488128Y-85907200D02*
X102535747Y-85859580D01*
X102535747Y-85859580D02*
X102583366Y-85764342D01*
X102583366Y-85764342D02*
X102630985Y-85573866D01*
X102630985Y-85573866D02*
X102630985Y-85335771D01*
X102630985Y-85335771D02*
X102583366Y-85145295D01*
X102583366Y-85145295D02*
X102535747Y-85050057D01*
X102535747Y-85050057D02*
X102488128Y-85002438D01*
X102488128Y-85002438D02*
X102392890Y-84954819D01*
X98547619Y-92454819D02*
X99119047Y-92454819D01*
X98833333Y-92454819D02*
X98833333Y-91454819D01*
X98833333Y-91454819D02*
X98928571Y-91597676D01*
X98928571Y-91597676D02*
X99023809Y-91692914D01*
X99023809Y-91692914D02*
X99119047Y-91740533D01*
X97928571Y-91454819D02*
X97833333Y-91454819D01*
X97833333Y-91454819D02*
X97738095Y-91502438D01*
X97738095Y-91502438D02*
X97690476Y-91550057D01*
X97690476Y-91550057D02*
X97642857Y-91645295D01*
X97642857Y-91645295D02*
X97595238Y-91835771D01*
X97595238Y-91835771D02*
X97595238Y-92073866D01*
X97595238Y-92073866D02*
X97642857Y-92264342D01*
X97642857Y-92264342D02*
X97690476Y-92359580D01*
X97690476Y-92359580D02*
X97738095Y-92407200D01*
X97738095Y-92407200D02*
X97833333Y-92454819D01*
X97833333Y-92454819D02*
X97928571Y-92454819D01*
X97928571Y-92454819D02*
X98023809Y-92407200D01*
X98023809Y-92407200D02*
X98071428Y-92359580D01*
X98071428Y-92359580D02*
X98119047Y-92264342D01*
X98119047Y-92264342D02*
X98166666Y-92073866D01*
X98166666Y-92073866D02*
X98166666Y-91835771D01*
X98166666Y-91835771D02*
X98119047Y-91645295D01*
X98119047Y-91645295D02*
X98071428Y-91550057D01*
X98071428Y-91550057D02*
X98023809Y-91502438D01*
X98023809Y-91502438D02*
X97928571Y-91454819D01*
X96976190Y-91454819D02*
X96880952Y-91454819D01*
X96880952Y-91454819D02*
X96785714Y-91502438D01*
X96785714Y-91502438D02*
X96738095Y-91550057D01*
X96738095Y-91550057D02*
X96690476Y-91645295D01*
X96690476Y-91645295D02*
X96642857Y-91835771D01*
X96642857Y-91835771D02*
X96642857Y-92073866D01*
X96642857Y-92073866D02*
X96690476Y-92264342D01*
X96690476Y-92264342D02*
X96738095Y-92359580D01*
X96738095Y-92359580D02*
X96785714Y-92407200D01*
X96785714Y-92407200D02*
X96880952Y-92454819D01*
X96880952Y-92454819D02*
X96976190Y-92454819D01*
X96976190Y-92454819D02*
X97071428Y-92407200D01*
X97071428Y-92407200D02*
X97119047Y-92359580D01*
X97119047Y-92359580D02*
X97166666Y-92264342D01*
X97166666Y-92264342D02*
X97214285Y-92073866D01*
X97214285Y-92073866D02*
X97214285Y-91835771D01*
X97214285Y-91835771D02*
X97166666Y-91645295D01*
X97166666Y-91645295D02*
X97119047Y-91550057D01*
X97119047Y-91550057D02*
X97071428Y-91502438D01*
X97071428Y-91502438D02*
X96976190Y-91454819D01*
X96214285Y-91788152D02*
X96214285Y-92454819D01*
X96214285Y-91883390D02*
X96166666Y-91835771D01*
X96166666Y-91835771D02*
X96071428Y-91788152D01*
X96071428Y-91788152D02*
X95928571Y-91788152D01*
X95928571Y-91788152D02*
X95833333Y-91835771D01*
X95833333Y-91835771D02*
X95785714Y-91931009D01*
X95785714Y-91931009D02*
X95785714Y-92454819D01*
X94976190Y-91931009D02*
X95309523Y-91931009D01*
X95309523Y-92454819D02*
X95309523Y-91454819D01*
X95309523Y-91454819D02*
X94833333Y-91454819D01*
X100547619Y-85954819D02*
X101119047Y-85954819D01*
X100833333Y-85954819D02*
X100833333Y-84954819D01*
X100833333Y-84954819D02*
X100928571Y-85097676D01*
X100928571Y-85097676D02*
X101023809Y-85192914D01*
X101023809Y-85192914D02*
X101119047Y-85240533D01*
X99928571Y-84954819D02*
X99833333Y-84954819D01*
X99833333Y-84954819D02*
X99738095Y-85002438D01*
X99738095Y-85002438D02*
X99690476Y-85050057D01*
X99690476Y-85050057D02*
X99642857Y-85145295D01*
X99642857Y-85145295D02*
X99595238Y-85335771D01*
X99595238Y-85335771D02*
X99595238Y-85573866D01*
X99595238Y-85573866D02*
X99642857Y-85764342D01*
X99642857Y-85764342D02*
X99690476Y-85859580D01*
X99690476Y-85859580D02*
X99738095Y-85907200D01*
X99738095Y-85907200D02*
X99833333Y-85954819D01*
X99833333Y-85954819D02*
X99928571Y-85954819D01*
X99928571Y-85954819D02*
X100023809Y-85907200D01*
X100023809Y-85907200D02*
X100071428Y-85859580D01*
X100071428Y-85859580D02*
X100119047Y-85764342D01*
X100119047Y-85764342D02*
X100166666Y-85573866D01*
X100166666Y-85573866D02*
X100166666Y-85335771D01*
X100166666Y-85335771D02*
X100119047Y-85145295D01*
X100119047Y-85145295D02*
X100071428Y-85050057D01*
X100071428Y-85050057D02*
X100023809Y-85002438D01*
X100023809Y-85002438D02*
X99928571Y-84954819D01*
X98976190Y-84954819D02*
X98880952Y-84954819D01*
X98880952Y-84954819D02*
X98785714Y-85002438D01*
X98785714Y-85002438D02*
X98738095Y-85050057D01*
X98738095Y-85050057D02*
X98690476Y-85145295D01*
X98690476Y-85145295D02*
X98642857Y-85335771D01*
X98642857Y-85335771D02*
X98642857Y-85573866D01*
X98642857Y-85573866D02*
X98690476Y-85764342D01*
X98690476Y-85764342D02*
X98738095Y-85859580D01*
X98738095Y-85859580D02*
X98785714Y-85907200D01*
X98785714Y-85907200D02*
X98880952Y-85954819D01*
X98880952Y-85954819D02*
X98976190Y-85954819D01*
X98976190Y-85954819D02*
X99071428Y-85907200D01*
X99071428Y-85907200D02*
X99119047Y-85859580D01*
X99119047Y-85859580D02*
X99166666Y-85764342D01*
X99166666Y-85764342D02*
X99214285Y-85573866D01*
X99214285Y-85573866D02*
X99214285Y-85335771D01*
X99214285Y-85335771D02*
X99166666Y-85145295D01*
X99166666Y-85145295D02*
X99119047Y-85050057D01*
X99119047Y-85050057D02*
X99071428Y-85002438D01*
X99071428Y-85002438D02*
X98976190Y-84954819D01*
X98214285Y-85288152D02*
X98214285Y-85954819D01*
X98214285Y-85383390D02*
X98166666Y-85335771D01*
X98166666Y-85335771D02*
X98071428Y-85288152D01*
X98071428Y-85288152D02*
X97928571Y-85288152D01*
X97928571Y-85288152D02*
X97833333Y-85335771D01*
X97833333Y-85335771D02*
X97785714Y-85431009D01*
X97785714Y-85431009D02*
X97785714Y-85954819D01*
X96976190Y-85431009D02*
X97309523Y-85431009D01*
X97309523Y-85954819D02*
X97309523Y-84954819D01*
X97309523Y-84954819D02*
X96833333Y-84954819D01*
M02*
