%TF.GenerationSoftware,KiCad,Pcbnew,10.0.3*%
%TF.CreationDate,2026-06-09T15:52:31+08:00*%
%TF.ProjectId,ProPrj_________________2026-06-08,50726f50-726a-45f1-9435-5b1829b73e3a,rev?*%
%TF.SameCoordinates,Original*%
%TF.FileFunction,AssemblyDrawing,Top*%
%FSLAX46Y46*%
G04 Gerber Fmt 4.6, Leading zero omitted, Abs format (unit mm)*
G04 Created by KiCad (PCBNEW 10.0.3) date 2026-06-09 15:52:31*
%MOMM*%
%LPD*%
G01*
G04 APERTURE LIST*
%ADD10C,0.150000*%
G04 APERTURE END LIST*
D10*
X80607143Y-71754819D02*
X80702381Y-71754819D01*
X80702381Y-71754819D02*
X80797619Y-71802438D01*
X80797619Y-71802438D02*
X80845238Y-71850057D01*
X80845238Y-71850057D02*
X80892857Y-71945295D01*
X80892857Y-71945295D02*
X80940476Y-72135771D01*
X80940476Y-72135771D02*
X80940476Y-72373866D01*
X80940476Y-72373866D02*
X80892857Y-72564342D01*
X80892857Y-72564342D02*
X80845238Y-72659580D01*
X80845238Y-72659580D02*
X80797619Y-72707200D01*
X80797619Y-72707200D02*
X80702381Y-72754819D01*
X80702381Y-72754819D02*
X80607143Y-72754819D01*
X80607143Y-72754819D02*
X80511905Y-72707200D01*
X80511905Y-72707200D02*
X80464286Y-72659580D01*
X80464286Y-72659580D02*
X80416667Y-72564342D01*
X80416667Y-72564342D02*
X80369048Y-72373866D01*
X80369048Y-72373866D02*
X80369048Y-72135771D01*
X80369048Y-72135771D02*
X80416667Y-71945295D01*
X80416667Y-71945295D02*
X80464286Y-71850057D01*
X80464286Y-71850057D02*
X80511905Y-71802438D01*
X80511905Y-71802438D02*
X80607143Y-71754819D01*
X81369048Y-72659580D02*
X81416667Y-72707200D01*
X81416667Y-72707200D02*
X81369048Y-72754819D01*
X81369048Y-72754819D02*
X81321429Y-72707200D01*
X81321429Y-72707200D02*
X81369048Y-72659580D01*
X81369048Y-72659580D02*
X81369048Y-72754819D01*
X82369047Y-72754819D02*
X81797619Y-72754819D01*
X82083333Y-72754819D02*
X82083333Y-71754819D01*
X82083333Y-71754819D02*
X81988095Y-71897676D01*
X81988095Y-71897676D02*
X81892857Y-71992914D01*
X81892857Y-71992914D02*
X81797619Y-72040533D01*
X83226190Y-72088152D02*
X83226190Y-72754819D01*
X82797619Y-72088152D02*
X82797619Y-72611961D01*
X82797619Y-72611961D02*
X82845238Y-72707200D01*
X82845238Y-72707200D02*
X82940476Y-72754819D01*
X82940476Y-72754819D02*
X83083333Y-72754819D01*
X83083333Y-72754819D02*
X83178571Y-72707200D01*
X83178571Y-72707200D02*
X83226190Y-72659580D01*
X84035714Y-72231009D02*
X83702381Y-72231009D01*
X83702381Y-72754819D02*
X83702381Y-71754819D01*
X83702381Y-71754819D02*
X84178571Y-71754819D01*
X80607143Y-64754819D02*
X80702381Y-64754819D01*
X80702381Y-64754819D02*
X80797619Y-64802438D01*
X80797619Y-64802438D02*
X80845238Y-64850057D01*
X80845238Y-64850057D02*
X80892857Y-64945295D01*
X80892857Y-64945295D02*
X80940476Y-65135771D01*
X80940476Y-65135771D02*
X80940476Y-65373866D01*
X80940476Y-65373866D02*
X80892857Y-65564342D01*
X80892857Y-65564342D02*
X80845238Y-65659580D01*
X80845238Y-65659580D02*
X80797619Y-65707200D01*
X80797619Y-65707200D02*
X80702381Y-65754819D01*
X80702381Y-65754819D02*
X80607143Y-65754819D01*
X80607143Y-65754819D02*
X80511905Y-65707200D01*
X80511905Y-65707200D02*
X80464286Y-65659580D01*
X80464286Y-65659580D02*
X80416667Y-65564342D01*
X80416667Y-65564342D02*
X80369048Y-65373866D01*
X80369048Y-65373866D02*
X80369048Y-65135771D01*
X80369048Y-65135771D02*
X80416667Y-64945295D01*
X80416667Y-64945295D02*
X80464286Y-64850057D01*
X80464286Y-64850057D02*
X80511905Y-64802438D01*
X80511905Y-64802438D02*
X80607143Y-64754819D01*
X81369048Y-65659580D02*
X81416667Y-65707200D01*
X81416667Y-65707200D02*
X81369048Y-65754819D01*
X81369048Y-65754819D02*
X81321429Y-65707200D01*
X81321429Y-65707200D02*
X81369048Y-65659580D01*
X81369048Y-65659580D02*
X81369048Y-65754819D01*
X82369047Y-65754819D02*
X81797619Y-65754819D01*
X82083333Y-65754819D02*
X82083333Y-64754819D01*
X82083333Y-64754819D02*
X81988095Y-64897676D01*
X81988095Y-64897676D02*
X81892857Y-64992914D01*
X81892857Y-64992914D02*
X81797619Y-65040533D01*
X83226190Y-65088152D02*
X83226190Y-65754819D01*
X82797619Y-65088152D02*
X82797619Y-65611961D01*
X82797619Y-65611961D02*
X82845238Y-65707200D01*
X82845238Y-65707200D02*
X82940476Y-65754819D01*
X82940476Y-65754819D02*
X83083333Y-65754819D01*
X83083333Y-65754819D02*
X83178571Y-65707200D01*
X83178571Y-65707200D02*
X83226190Y-65659580D01*
X84035714Y-65231009D02*
X83702381Y-65231009D01*
X83702381Y-65754819D02*
X83702381Y-64754819D01*
X83702381Y-64754819D02*
X84178571Y-64754819D01*
X90309523Y-98857200D02*
X90452380Y-98904819D01*
X90452380Y-98904819D02*
X90690475Y-98904819D01*
X90690475Y-98904819D02*
X90785713Y-98857200D01*
X90785713Y-98857200D02*
X90833332Y-98809580D01*
X90833332Y-98809580D02*
X90880951Y-98714342D01*
X90880951Y-98714342D02*
X90880951Y-98619104D01*
X90880951Y-98619104D02*
X90833332Y-98523866D01*
X90833332Y-98523866D02*
X90785713Y-98476247D01*
X90785713Y-98476247D02*
X90690475Y-98428628D01*
X90690475Y-98428628D02*
X90499999Y-98381009D01*
X90499999Y-98381009D02*
X90404761Y-98333390D01*
X90404761Y-98333390D02*
X90357142Y-98285771D01*
X90357142Y-98285771D02*
X90309523Y-98190533D01*
X90309523Y-98190533D02*
X90309523Y-98095295D01*
X90309523Y-98095295D02*
X90357142Y-98000057D01*
X90357142Y-98000057D02*
X90404761Y-97952438D01*
X90404761Y-97952438D02*
X90499999Y-97904819D01*
X90499999Y-97904819D02*
X90738094Y-97904819D01*
X90738094Y-97904819D02*
X90880951Y-97952438D01*
X91166666Y-97904819D02*
X91738094Y-97904819D01*
X91452380Y-98904819D02*
X91452380Y-97904819D01*
X91976190Y-97904819D02*
X92642856Y-97904819D01*
X92642856Y-97904819D02*
X92214285Y-98904819D01*
X92928571Y-97904819D02*
X93595237Y-97904819D01*
X93595237Y-97904819D02*
X93166666Y-98904819D01*
X94119047Y-98333390D02*
X94023809Y-98285771D01*
X94023809Y-98285771D02*
X93976190Y-98238152D01*
X93976190Y-98238152D02*
X93928571Y-98142914D01*
X93928571Y-98142914D02*
X93928571Y-98095295D01*
X93928571Y-98095295D02*
X93976190Y-98000057D01*
X93976190Y-98000057D02*
X94023809Y-97952438D01*
X94023809Y-97952438D02*
X94119047Y-97904819D01*
X94119047Y-97904819D02*
X94309523Y-97904819D01*
X94309523Y-97904819D02*
X94404761Y-97952438D01*
X94404761Y-97952438D02*
X94452380Y-98000057D01*
X94452380Y-98000057D02*
X94499999Y-98095295D01*
X94499999Y-98095295D02*
X94499999Y-98142914D01*
X94499999Y-98142914D02*
X94452380Y-98238152D01*
X94452380Y-98238152D02*
X94404761Y-98285771D01*
X94404761Y-98285771D02*
X94309523Y-98333390D01*
X94309523Y-98333390D02*
X94119047Y-98333390D01*
X94119047Y-98333390D02*
X94023809Y-98381009D01*
X94023809Y-98381009D02*
X93976190Y-98428628D01*
X93976190Y-98428628D02*
X93928571Y-98523866D01*
X93928571Y-98523866D02*
X93928571Y-98714342D01*
X93928571Y-98714342D02*
X93976190Y-98809580D01*
X93976190Y-98809580D02*
X94023809Y-98857200D01*
X94023809Y-98857200D02*
X94119047Y-98904819D01*
X94119047Y-98904819D02*
X94309523Y-98904819D01*
X94309523Y-98904819D02*
X94404761Y-98857200D01*
X94404761Y-98857200D02*
X94452380Y-98809580D01*
X94452380Y-98809580D02*
X94499999Y-98714342D01*
X94499999Y-98714342D02*
X94499999Y-98523866D01*
X94499999Y-98523866D02*
X94452380Y-98428628D01*
X94452380Y-98428628D02*
X94404761Y-98381009D01*
X94404761Y-98381009D02*
X94309523Y-98333390D01*
X94976190Y-98904819D02*
X95166666Y-98904819D01*
X95166666Y-98904819D02*
X95261904Y-98857200D01*
X95261904Y-98857200D02*
X95309523Y-98809580D01*
X95309523Y-98809580D02*
X95404761Y-98666723D01*
X95404761Y-98666723D02*
X95452380Y-98476247D01*
X95452380Y-98476247D02*
X95452380Y-98095295D01*
X95452380Y-98095295D02*
X95404761Y-98000057D01*
X95404761Y-98000057D02*
X95357142Y-97952438D01*
X95357142Y-97952438D02*
X95261904Y-97904819D01*
X95261904Y-97904819D02*
X95071428Y-97904819D01*
X95071428Y-97904819D02*
X94976190Y-97952438D01*
X94976190Y-97952438D02*
X94928571Y-98000057D01*
X94928571Y-98000057D02*
X94880952Y-98095295D01*
X94880952Y-98095295D02*
X94880952Y-98333390D01*
X94880952Y-98333390D02*
X94928571Y-98428628D01*
X94928571Y-98428628D02*
X94976190Y-98476247D01*
X94976190Y-98476247D02*
X95071428Y-98523866D01*
X95071428Y-98523866D02*
X95261904Y-98523866D01*
X95261904Y-98523866D02*
X95357142Y-98476247D01*
X95357142Y-98476247D02*
X95404761Y-98428628D01*
X95404761Y-98428628D02*
X95452380Y-98333390D01*
X95642857Y-99000057D02*
X96404761Y-99000057D01*
X97166666Y-98904819D02*
X96595238Y-98904819D01*
X96880952Y-98904819D02*
X96880952Y-97904819D01*
X96880952Y-97904819D02*
X96785714Y-98047676D01*
X96785714Y-98047676D02*
X96690476Y-98142914D01*
X96690476Y-98142914D02*
X96595238Y-98190533D01*
X97547619Y-98000057D02*
X97595238Y-97952438D01*
X97595238Y-97952438D02*
X97690476Y-97904819D01*
X97690476Y-97904819D02*
X97928571Y-97904819D01*
X97928571Y-97904819D02*
X98023809Y-97952438D01*
X98023809Y-97952438D02*
X98071428Y-98000057D01*
X98071428Y-98000057D02*
X98119047Y-98095295D01*
X98119047Y-98095295D02*
X98119047Y-98190533D01*
X98119047Y-98190533D02*
X98071428Y-98333390D01*
X98071428Y-98333390D02*
X97500000Y-98904819D01*
X97500000Y-98904819D02*
X98119047Y-98904819D01*
X98547619Y-98904819D02*
X98547619Y-97904819D01*
X98547619Y-97904819D02*
X98928571Y-97904819D01*
X98928571Y-97904819D02*
X99023809Y-97952438D01*
X99023809Y-97952438D02*
X99071428Y-98000057D01*
X99071428Y-98000057D02*
X99119047Y-98095295D01*
X99119047Y-98095295D02*
X99119047Y-98238152D01*
X99119047Y-98238152D02*
X99071428Y-98333390D01*
X99071428Y-98333390D02*
X99023809Y-98381009D01*
X99023809Y-98381009D02*
X98928571Y-98428628D01*
X98928571Y-98428628D02*
X98547619Y-98428628D01*
X99309524Y-99000057D02*
X100071428Y-99000057D01*
X100785714Y-98904819D02*
X100309524Y-98904819D01*
X100309524Y-98904819D02*
X100309524Y-97904819D01*
X101690476Y-98809580D02*
X101642857Y-98857200D01*
X101642857Y-98857200D02*
X101500000Y-98904819D01*
X101500000Y-98904819D02*
X101404762Y-98904819D01*
X101404762Y-98904819D02*
X101261905Y-98857200D01*
X101261905Y-98857200D02*
X101166667Y-98761961D01*
X101166667Y-98761961D02*
X101119048Y-98666723D01*
X101119048Y-98666723D02*
X101071429Y-98476247D01*
X101071429Y-98476247D02*
X101071429Y-98333390D01*
X101071429Y-98333390D02*
X101119048Y-98142914D01*
X101119048Y-98142914D02*
X101166667Y-98047676D01*
X101166667Y-98047676D02*
X101261905Y-97952438D01*
X101261905Y-97952438D02*
X101404762Y-97904819D01*
X101404762Y-97904819D02*
X101500000Y-97904819D01*
X101500000Y-97904819D02*
X101642857Y-97952438D01*
X101642857Y-97952438D02*
X101690476Y-98000057D01*
X102119048Y-98904819D02*
X102119048Y-97904819D01*
X102119048Y-97904819D02*
X102357143Y-97904819D01*
X102357143Y-97904819D02*
X102500000Y-97952438D01*
X102500000Y-97952438D02*
X102595238Y-98047676D01*
X102595238Y-98047676D02*
X102642857Y-98142914D01*
X102642857Y-98142914D02*
X102690476Y-98333390D01*
X102690476Y-98333390D02*
X102690476Y-98476247D01*
X102690476Y-98476247D02*
X102642857Y-98666723D01*
X102642857Y-98666723D02*
X102595238Y-98761961D01*
X102595238Y-98761961D02*
X102500000Y-98857200D01*
X102500000Y-98857200D02*
X102357143Y-98904819D01*
X102357143Y-98904819D02*
X102119048Y-98904819D01*
X88726190Y-72088152D02*
X88726190Y-72754819D01*
X88488095Y-71707200D02*
X88250000Y-72421485D01*
X88250000Y-72421485D02*
X88869047Y-72421485D01*
X89250000Y-72659580D02*
X89297619Y-72707200D01*
X89297619Y-72707200D02*
X89250000Y-72754819D01*
X89250000Y-72754819D02*
X89202381Y-72707200D01*
X89202381Y-72707200D02*
X89250000Y-72659580D01*
X89250000Y-72659580D02*
X89250000Y-72754819D01*
X89630952Y-71754819D02*
X90297618Y-71754819D01*
X90297618Y-71754819D02*
X89869047Y-72754819D01*
X90678571Y-72754819D02*
X90678571Y-71754819D01*
X91249999Y-72754819D02*
X90821428Y-72183390D01*
X91249999Y-71754819D02*
X90678571Y-72326247D01*
X77476190Y-48231009D02*
X77809523Y-48231009D01*
X77952380Y-48754819D02*
X77476190Y-48754819D01*
X77476190Y-48754819D02*
X77476190Y-47754819D01*
X77476190Y-47754819D02*
X77952380Y-47754819D01*
X78952380Y-48659580D02*
X78904761Y-48707200D01*
X78904761Y-48707200D02*
X78761904Y-48754819D01*
X78761904Y-48754819D02*
X78666666Y-48754819D01*
X78666666Y-48754819D02*
X78523809Y-48707200D01*
X78523809Y-48707200D02*
X78428571Y-48611961D01*
X78428571Y-48611961D02*
X78380952Y-48516723D01*
X78380952Y-48516723D02*
X78333333Y-48326247D01*
X78333333Y-48326247D02*
X78333333Y-48183390D01*
X78333333Y-48183390D02*
X78380952Y-47992914D01*
X78380952Y-47992914D02*
X78428571Y-47897676D01*
X78428571Y-47897676D02*
X78523809Y-47802438D01*
X78523809Y-47802438D02*
X78666666Y-47754819D01*
X78666666Y-47754819D02*
X78761904Y-47754819D01*
X78761904Y-47754819D02*
X78904761Y-47802438D01*
X78904761Y-47802438D02*
X78952380Y-47850057D01*
X79904761Y-48754819D02*
X79333333Y-48754819D01*
X79619047Y-48754819D02*
X79619047Y-47754819D01*
X79619047Y-47754819D02*
X79523809Y-47897676D01*
X79523809Y-47897676D02*
X79428571Y-47992914D01*
X79428571Y-47992914D02*
X79333333Y-48040533D01*
X80857142Y-48754819D02*
X80285714Y-48754819D01*
X80571428Y-48754819D02*
X80571428Y-47754819D01*
X80571428Y-47754819D02*
X80476190Y-47897676D01*
X80476190Y-47897676D02*
X80380952Y-47992914D01*
X80380952Y-47992914D02*
X80285714Y-48040533D01*
X81285714Y-48754819D02*
X81285714Y-47754819D01*
X81285714Y-47754819D02*
X81857142Y-48754819D01*
X81857142Y-48754819D02*
X81857142Y-47754819D01*
X82857142Y-48754819D02*
X82285714Y-48754819D01*
X82571428Y-48754819D02*
X82571428Y-47754819D01*
X82571428Y-47754819D02*
X82476190Y-47897676D01*
X82476190Y-47897676D02*
X82380952Y-47992914D01*
X82380952Y-47992914D02*
X82285714Y-48040533D01*
X83761904Y-47754819D02*
X83285714Y-47754819D01*
X83285714Y-47754819D02*
X83238095Y-48231009D01*
X83238095Y-48231009D02*
X83285714Y-48183390D01*
X83285714Y-48183390D02*
X83380952Y-48135771D01*
X83380952Y-48135771D02*
X83619047Y-48135771D01*
X83619047Y-48135771D02*
X83714285Y-48183390D01*
X83714285Y-48183390D02*
X83761904Y-48231009D01*
X83761904Y-48231009D02*
X83809523Y-48326247D01*
X83809523Y-48326247D02*
X83809523Y-48564342D01*
X83809523Y-48564342D02*
X83761904Y-48659580D01*
X83761904Y-48659580D02*
X83714285Y-48707200D01*
X83714285Y-48707200D02*
X83619047Y-48754819D01*
X83619047Y-48754819D02*
X83380952Y-48754819D01*
X83380952Y-48754819D02*
X83285714Y-48707200D01*
X83285714Y-48707200D02*
X83238095Y-48659580D01*
X84190476Y-47850057D02*
X84238095Y-47802438D01*
X84238095Y-47802438D02*
X84333333Y-47754819D01*
X84333333Y-47754819D02*
X84571428Y-47754819D01*
X84571428Y-47754819D02*
X84666666Y-47802438D01*
X84666666Y-47802438D02*
X84714285Y-47850057D01*
X84714285Y-47850057D02*
X84761904Y-47945295D01*
X84761904Y-47945295D02*
X84761904Y-48040533D01*
X84761904Y-48040533D02*
X84714285Y-48183390D01*
X84714285Y-48183390D02*
X84142857Y-48754819D01*
X84142857Y-48754819D02*
X84761904Y-48754819D01*
X85666666Y-47754819D02*
X85190476Y-47754819D01*
X85190476Y-47754819D02*
X85142857Y-48231009D01*
X85142857Y-48231009D02*
X85190476Y-48183390D01*
X85190476Y-48183390D02*
X85285714Y-48135771D01*
X85285714Y-48135771D02*
X85523809Y-48135771D01*
X85523809Y-48135771D02*
X85619047Y-48183390D01*
X85619047Y-48183390D02*
X85666666Y-48231009D01*
X85666666Y-48231009D02*
X85714285Y-48326247D01*
X85714285Y-48326247D02*
X85714285Y-48564342D01*
X85714285Y-48564342D02*
X85666666Y-48659580D01*
X85666666Y-48659580D02*
X85619047Y-48707200D01*
X85619047Y-48707200D02*
X85523809Y-48754819D01*
X85523809Y-48754819D02*
X85285714Y-48754819D01*
X85285714Y-48754819D02*
X85190476Y-48707200D01*
X85190476Y-48707200D02*
X85142857Y-48659580D01*
X86571428Y-48088152D02*
X86571428Y-48754819D01*
X86333333Y-47707200D02*
X86095238Y-48421485D01*
X86095238Y-48421485D02*
X86714285Y-48421485D01*
X87285714Y-47754819D02*
X87380952Y-47754819D01*
X87380952Y-47754819D02*
X87476190Y-47802438D01*
X87476190Y-47802438D02*
X87523809Y-47850057D01*
X87523809Y-47850057D02*
X87571428Y-47945295D01*
X87571428Y-47945295D02*
X87619047Y-48135771D01*
X87619047Y-48135771D02*
X87619047Y-48373866D01*
X87619047Y-48373866D02*
X87571428Y-48564342D01*
X87571428Y-48564342D02*
X87523809Y-48659580D01*
X87523809Y-48659580D02*
X87476190Y-48707200D01*
X87476190Y-48707200D02*
X87380952Y-48754819D01*
X87380952Y-48754819D02*
X87285714Y-48754819D01*
X87285714Y-48754819D02*
X87190476Y-48707200D01*
X87190476Y-48707200D02*
X87142857Y-48659580D01*
X87142857Y-48659580D02*
X87095238Y-48564342D01*
X87095238Y-48564342D02*
X87047619Y-48373866D01*
X87047619Y-48373866D02*
X87047619Y-48135771D01*
X87047619Y-48135771D02*
X87095238Y-47945295D01*
X87095238Y-47945295D02*
X87142857Y-47850057D01*
X87142857Y-47850057D02*
X87190476Y-47802438D01*
X87190476Y-47802438D02*
X87285714Y-47754819D01*
X88523809Y-47754819D02*
X88047619Y-47754819D01*
X88047619Y-47754819D02*
X88000000Y-48231009D01*
X88000000Y-48231009D02*
X88047619Y-48183390D01*
X88047619Y-48183390D02*
X88142857Y-48135771D01*
X88142857Y-48135771D02*
X88380952Y-48135771D01*
X88380952Y-48135771D02*
X88476190Y-48183390D01*
X88476190Y-48183390D02*
X88523809Y-48231009D01*
X88523809Y-48231009D02*
X88571428Y-48326247D01*
X88571428Y-48326247D02*
X88571428Y-48564342D01*
X88571428Y-48564342D02*
X88523809Y-48659580D01*
X88523809Y-48659580D02*
X88476190Y-48707200D01*
X88476190Y-48707200D02*
X88380952Y-48754819D01*
X88380952Y-48754819D02*
X88142857Y-48754819D01*
X88142857Y-48754819D02*
X88047619Y-48707200D01*
X88047619Y-48707200D02*
X88000000Y-48659580D01*
X88726190Y-68588152D02*
X88726190Y-69254819D01*
X88488095Y-68207200D02*
X88250000Y-68921485D01*
X88250000Y-68921485D02*
X88869047Y-68921485D01*
X89250000Y-69159580D02*
X89297619Y-69207200D01*
X89297619Y-69207200D02*
X89250000Y-69254819D01*
X89250000Y-69254819D02*
X89202381Y-69207200D01*
X89202381Y-69207200D02*
X89250000Y-69159580D01*
X89250000Y-69159580D02*
X89250000Y-69254819D01*
X89630952Y-68254819D02*
X90297618Y-68254819D01*
X90297618Y-68254819D02*
X89869047Y-69254819D01*
X90678571Y-69254819D02*
X90678571Y-68254819D01*
X91249999Y-69254819D02*
X90821428Y-68683390D01*
X91249999Y-68254819D02*
X90678571Y-68826247D01*
X88726190Y-65088152D02*
X88726190Y-65754819D01*
X88488095Y-64707200D02*
X88250000Y-65421485D01*
X88250000Y-65421485D02*
X88869047Y-65421485D01*
X89250000Y-65659580D02*
X89297619Y-65707200D01*
X89297619Y-65707200D02*
X89250000Y-65754819D01*
X89250000Y-65754819D02*
X89202381Y-65707200D01*
X89202381Y-65707200D02*
X89250000Y-65659580D01*
X89250000Y-65659580D02*
X89250000Y-65754819D01*
X89630952Y-64754819D02*
X90297618Y-64754819D01*
X90297618Y-64754819D02*
X89869047Y-65754819D01*
X90678571Y-65754819D02*
X90678571Y-64754819D01*
X91249999Y-65754819D02*
X90821428Y-65183390D01*
X91249999Y-64754819D02*
X90678571Y-65326247D01*
X80607143Y-68254819D02*
X80702381Y-68254819D01*
X80702381Y-68254819D02*
X80797619Y-68302438D01*
X80797619Y-68302438D02*
X80845238Y-68350057D01*
X80845238Y-68350057D02*
X80892857Y-68445295D01*
X80892857Y-68445295D02*
X80940476Y-68635771D01*
X80940476Y-68635771D02*
X80940476Y-68873866D01*
X80940476Y-68873866D02*
X80892857Y-69064342D01*
X80892857Y-69064342D02*
X80845238Y-69159580D01*
X80845238Y-69159580D02*
X80797619Y-69207200D01*
X80797619Y-69207200D02*
X80702381Y-69254819D01*
X80702381Y-69254819D02*
X80607143Y-69254819D01*
X80607143Y-69254819D02*
X80511905Y-69207200D01*
X80511905Y-69207200D02*
X80464286Y-69159580D01*
X80464286Y-69159580D02*
X80416667Y-69064342D01*
X80416667Y-69064342D02*
X80369048Y-68873866D01*
X80369048Y-68873866D02*
X80369048Y-68635771D01*
X80369048Y-68635771D02*
X80416667Y-68445295D01*
X80416667Y-68445295D02*
X80464286Y-68350057D01*
X80464286Y-68350057D02*
X80511905Y-68302438D01*
X80511905Y-68302438D02*
X80607143Y-68254819D01*
X81369048Y-69159580D02*
X81416667Y-69207200D01*
X81416667Y-69207200D02*
X81369048Y-69254819D01*
X81369048Y-69254819D02*
X81321429Y-69207200D01*
X81321429Y-69207200D02*
X81369048Y-69159580D01*
X81369048Y-69159580D02*
X81369048Y-69254819D01*
X82369047Y-69254819D02*
X81797619Y-69254819D01*
X82083333Y-69254819D02*
X82083333Y-68254819D01*
X82083333Y-68254819D02*
X81988095Y-68397676D01*
X81988095Y-68397676D02*
X81892857Y-68492914D01*
X81892857Y-68492914D02*
X81797619Y-68540533D01*
X83226190Y-68588152D02*
X83226190Y-69254819D01*
X82797619Y-68588152D02*
X82797619Y-69111961D01*
X82797619Y-69111961D02*
X82845238Y-69207200D01*
X82845238Y-69207200D02*
X82940476Y-69254819D01*
X82940476Y-69254819D02*
X83083333Y-69254819D01*
X83083333Y-69254819D02*
X83178571Y-69207200D01*
X83178571Y-69207200D02*
X83226190Y-69159580D01*
X84035714Y-68731009D02*
X83702381Y-68731009D01*
X83702381Y-69254819D02*
X83702381Y-68254819D01*
X83702381Y-68254819D02*
X84178571Y-68254819D01*
M02*
