%TF.GenerationSoftware,KiCad,Pcbnew,10.0.3*%
%TF.CreationDate,2026-06-09T15:52:31+08:00*%
%TF.ProjectId,ProPrj_________________2026-06-08,50726f50-726a-45f1-9435-5b1829b73e3a,rev?*%
%TF.SameCoordinates,Original*%
%TF.FileFunction,Copper,L1,Top*%
%TF.FilePolarity,Positive*%
%FSLAX46Y46*%
G04 Gerber Fmt 4.6, Leading zero omitted, Abs format (unit mm)*
G04 Created by KiCad (PCBNEW 10.0.3) date 2026-06-09 15:52:31*
%MOMM*%
%LPD*%
G01*
G04 APERTURE LIST*
G04 Aperture macros list*
%AMRoundRect*
0 Rectangle with rounded corners*
0 $1 Rounding radius*
0 $2 $3 $4 $5 $6 $7 $8 $9 X,Y pos of 4 corners*
0 Add a 4 corners polygon primitive as box body*
4,1,4,$2,$3,$4,$5,$6,$7,$8,$9,$2,$3,0*
0 Add four circle primitives for the rounded corners*
1,1,$1+$1,$2,$3*
1,1,$1+$1,$4,$5*
1,1,$1+$1,$6,$7*
1,1,$1+$1,$8,$9*
0 Add four rect primitives between the rounded corners*
20,1,$1+$1,$2,$3,$4,$5,0*
20,1,$1+$1,$4,$5,$6,$7,0*
20,1,$1+$1,$6,$7,$8,$9,0*
20,1,$1+$1,$8,$9,$2,$3,0*%
G04 Aperture macros list end*
%TA.AperFunction,SMDPad,CuDef*%
%ADD10RoundRect,0.160000X-0.240000X-0.290000X0.240000X-0.290000X0.240000X0.290000X-0.240000X0.290000X0*%
%TD*%
%TA.AperFunction,SMDPad,CuDef*%
%ADD11RoundRect,0.090000X0.135000X0.610000X-0.135000X0.610000X-0.135000X-0.610000X0.135000X-0.610000X0*%
%TD*%
%TA.AperFunction,ComponentPad*%
%ADD12C,1.800000*%
%TD*%
%TA.AperFunction,ComponentPad*%
%ADD13R,1.700000X1.700000*%
%TD*%
%TA.AperFunction,ComponentPad*%
%ADD14C,1.700000*%
%TD*%
%TA.AperFunction,ViaPad*%
%ADD15C,0.600000*%
%TD*%
%TA.AperFunction,Conductor*%
%ADD16C,0.200000*%
%TD*%
G04 APERTURE END LIST*
D10*
%TO.P,C5,1,1*%
%TO.N,GND*%
X81450000Y-70500000D03*
%TO.P,C5,2,2*%
%TO.N,EC11-M*%
X83050000Y-70500000D03*
%TD*%
%TO.P,C6,1,1*%
%TO.N,GND*%
X81450000Y-63500000D03*
%TO.P,C6,2,2*%
%TO.N,EC11-A*%
X83050000Y-63500000D03*
%TD*%
D11*
%TO.P,U1,1,1*%
%TO.N,GND*%
X102000000Y-100250000D03*
%TO.P,U1,2,2*%
%TO.N,LEDK*%
X101000000Y-100250000D03*
%TO.P,U1,3,3*%
%TO.N,VCC*%
X100000000Y-100250000D03*
%TO.P,U1,4,4*%
X99000000Y-100250000D03*
%TO.P,U1,5,5*%
%TO.N,GND*%
X98000000Y-100250000D03*
%TO.P,U1,6,6*%
X97000000Y-100250000D03*
%TO.P,U1,7,7*%
%TO.N,TFT_DC*%
X96000000Y-100250000D03*
%TO.P,U1,8,8*%
%TO.N,TFT_CS*%
X95000000Y-100250000D03*
%TO.P,U1,9,9*%
%TO.N,TFT_SCL*%
X94000000Y-100250000D03*
%TO.P,U1,10,10*%
%TO.N,TFT_SDA*%
X93000000Y-100250000D03*
%TO.P,U1,11,11*%
%TO.N,TFT_RES*%
X92000000Y-100250000D03*
%TO.P,U1,12,12*%
%TO.N,GND*%
X91000000Y-100250000D03*
%TD*%
D10*
%TO.P,R5,1,1*%
%TO.N,EC11-M*%
X88950000Y-70500000D03*
%TO.P,R5,2,2*%
%TO.N,VCC*%
X90550000Y-70500000D03*
%TD*%
D12*
%TO.P,SW1,A,A*%
%TO.N,EC11-A*%
X78000000Y-44000000D03*
%TO.P,SW1,B,B*%
%TO.N,EC11-B*%
X78000000Y-49000000D03*
%TO.P,SW1,C,C*%
%TO.N,GND*%
X78000000Y-46500000D03*
%TO.P,SW1,D,D*%
%TO.N,EC11-M*%
X88000000Y-44000000D03*
%TO.P,SW1,E,E*%
%TO.N,GND*%
X88000000Y-49000000D03*
%TO.P,SW1,EH,EH*%
X83000000Y-52000000D03*
%TD*%
D10*
%TO.P,R4,1,1*%
%TO.N,EC11-B*%
X88950000Y-67000000D03*
%TO.P,R4,2,2*%
%TO.N,VCC*%
X90550000Y-67000000D03*
%TD*%
%TO.P,R6,1,1*%
%TO.N,EC11-A*%
X88950000Y-63500000D03*
%TO.P,R6,2,2*%
%TO.N,VCC*%
X90550000Y-63500000D03*
%TD*%
%TO.P,C4,1,1*%
%TO.N,GND*%
X81450000Y-67000000D03*
%TO.P,C4,2,2*%
%TO.N,EC11-B*%
X83050000Y-67000000D03*
%TD*%
D13*
%TO.P,H3,1,1*%
%TO.N,VCC*%
X95340000Y-47500000D03*
D14*
%TO.P,H3,2,2*%
%TO.N,GND*%
X95340000Y-44960000D03*
%TO.P,H3,3,3*%
%TO.N,TFT_DC*%
X97880000Y-47500000D03*
%TO.P,H3,4,4*%
%TO.N,TFT_SCL*%
X97880000Y-44960000D03*
%TO.P,H3,5,5*%
%TO.N,TFT_CS*%
X100420000Y-47500000D03*
%TO.P,H3,6,6*%
%TO.N,TFT_SDA*%
X100420000Y-44960000D03*
%TO.P,H3,7,7*%
%TO.N,TFT_RES*%
X102960000Y-47500000D03*
%TO.P,H3,8,8*%
%TO.N,TFT_BLK*%
X102960000Y-44960000D03*
%TO.P,H3,9,9*%
%TO.N,EC11-A*%
X105500000Y-47500000D03*
%TO.P,H3,10,10*%
%TO.N,EC11-B*%
X105500000Y-44960000D03*
%TO.P,H3,11,11*%
%TO.N,EC11-M*%
X108040000Y-47500000D03*
%TO.P,H3,12,12*%
%TO.N,LEDK*%
X108040000Y-44960000D03*
%TO.P,H3,13*%
%TO.N,N/C*%
X110580000Y-47500000D03*
%TO.P,H3,14*%
X110580000Y-44960000D03*
%TO.P,H3,15*%
X113120000Y-47500000D03*
%TO.P,H3,16*%
X113120000Y-44960000D03*
%TO.P,H3,17*%
X115660000Y-47500000D03*
%TO.P,H3,18*%
X115660000Y-44960000D03*
%TD*%
D15*
%TO.N,TFT_BLK*%
X104179300Y-85912700D03*
%TO.N,VCC*%
X89390500Y-84633200D03*
X98637800Y-90080700D03*
%TO.N,GND*%
X81450000Y-71470400D03*
X98000000Y-99035400D03*
X80953900Y-66019500D03*
X80743000Y-62736300D03*
X102000000Y-101459100D03*
X91000000Y-99044100D03*
%TO.N,TFT_RES*%
X92300100Y-66375400D03*
X103364700Y-55310800D03*
%TO.N,LEDK*%
X101200000Y-86282200D03*
%TD*%
%TO.N,TFT_BLK*%
D16*
X102960000Y-44960000D02*
X104179300Y-46179300D01*
X104179300Y-46179300D02*
X104179300Y-85912700D01*
%TO.N,VCC*%
X90550000Y-53441700D02*
X90550000Y-63500000D01*
X95340000Y-47500000D02*
X95340000Y-48651700D01*
X90550000Y-67000000D02*
X90550000Y-70500000D01*
X99000000Y-90442900D02*
X98637800Y-90080700D01*
X99000000Y-100250000D02*
X99000000Y-90442900D01*
X90550000Y-70500000D02*
X89390500Y-71659500D01*
X89390500Y-71659500D02*
X89390500Y-84633200D01*
X99000000Y-100250000D02*
X100000000Y-100250000D01*
X90550000Y-63500000D02*
X90550000Y-67000000D01*
X95340000Y-48651700D02*
X90550000Y-53441700D01*
%TO.N,GND*%
X81450000Y-63443300D02*
X81450000Y-63500000D01*
X80743000Y-62736300D02*
X81450000Y-63443300D01*
X98000000Y-99035400D02*
X98000000Y-100250000D01*
X81450000Y-66515600D02*
X81450000Y-67000000D01*
X98000000Y-100250000D02*
X97000000Y-100250000D01*
X80953900Y-66019500D02*
X81450000Y-66515600D01*
X91000000Y-100250000D02*
X91000000Y-99044100D01*
X81450000Y-71470400D02*
X81450000Y-70500000D01*
X102000000Y-100250000D02*
X102000000Y-101459100D01*
%TO.N,EC11-M*%
X88000000Y-44000000D02*
X89750000Y-45750000D01*
X89750000Y-69700000D02*
X88950000Y-70500000D01*
X83050000Y-70500000D02*
X88950000Y-70500000D01*
X89750000Y-45750000D02*
X89750000Y-69700000D01*
%TO.N,EC11-A*%
X80358500Y-46358500D02*
X80358500Y-60808500D01*
X88950000Y-63500000D02*
X83050000Y-63500000D01*
X80358500Y-60808500D02*
X83050000Y-63500000D01*
X78000000Y-44000000D02*
X80358500Y-46358500D01*
%TO.N,TFT_DC*%
X96000000Y-100250000D02*
X96000000Y-89302900D01*
X99031700Y-45719900D02*
X97880000Y-46871600D01*
X99031700Y-44649200D02*
X99031700Y-45719900D01*
X97880000Y-46871600D02*
X97880000Y-47500000D01*
X101598500Y-83704400D02*
X101598500Y-44475900D01*
X99917100Y-43763800D02*
X99031700Y-44649200D01*
X101598500Y-44475900D02*
X100886400Y-43763800D01*
X100886400Y-43763800D02*
X99917100Y-43763800D01*
X96000000Y-89302900D02*
X101598500Y-83704400D01*
%TO.N,TFT_SCL*%
X91600200Y-55030500D02*
X96550000Y-50080700D01*
X96550000Y-50080700D02*
X96550000Y-46290000D01*
X90356000Y-84131900D02*
X91600200Y-82887700D01*
X94000000Y-100250000D02*
X94000000Y-100573600D01*
X96550000Y-46290000D02*
X97880000Y-44960000D01*
X90356000Y-100947200D02*
X90356000Y-84131900D01*
X94000000Y-100573600D02*
X93316600Y-101257000D01*
X93316600Y-101257000D02*
X90665800Y-101257000D01*
X91600200Y-82887700D02*
X91600200Y-55030500D01*
X90665800Y-101257000D02*
X90356000Y-100947200D01*
%TO.N,TFT_CS*%
X100420000Y-84291500D02*
X95000000Y-89711500D01*
X100420000Y-47500000D02*
X100420000Y-84291500D01*
X95000000Y-89711500D02*
X95000000Y-100250000D01*
%TO.N,TFT_SDA*%
X93000000Y-79635800D02*
X99150000Y-73485800D01*
X99150000Y-46230000D02*
X100420000Y-44960000D01*
X99150000Y-73485800D02*
X99150000Y-46230000D01*
X93000000Y-100250000D02*
X93000000Y-79635800D01*
%TO.N,TFT_RES*%
X92300100Y-99949900D02*
X92000000Y-100250000D01*
X92300100Y-66375400D02*
X92300100Y-99949900D01*
X103364700Y-47904700D02*
X103364700Y-55310800D01*
X102960000Y-47500000D02*
X103364700Y-47904700D01*
%TO.N,EC11-B*%
X78000000Y-61950000D02*
X83050000Y-67000000D01*
X83050000Y-67000000D02*
X88950000Y-67000000D01*
X78000000Y-49000000D02*
X78000000Y-61950000D01*
%TO.N,LEDK*%
X101468800Y-86551000D02*
X104479400Y-86551000D01*
X101200000Y-86282200D02*
X101468800Y-86551000D01*
X106770000Y-84260400D02*
X106770000Y-46230000D01*
X101000000Y-100250000D02*
X101000000Y-86482200D01*
X104479400Y-86551000D02*
X106770000Y-84260400D01*
X101000000Y-86482200D02*
X101200000Y-86282200D01*
X106770000Y-46230000D02*
X108040000Y-44960000D01*
%TD*%
M02*
