%TF.GenerationSoftware,KiCad,Pcbnew,10.0.3*%
%TF.CreationDate,2026-06-09T15:52:31+08:00*%
%TF.ProjectId,ProPrj_________________2026-06-08,50726f50-726a-45f1-9435-5b1829b73e3a,rev?*%
%TF.SameCoordinates,Original*%
%TF.FileFunction,Legend,Bot*%
%TF.FilePolarity,Positive*%
%FSLAX46Y46*%
G04 Gerber Fmt 4.6, Leading zero omitted, Abs format (unit mm)*
G04 Created by KiCad (PCBNEW 10.0.3) date 2026-06-09 15:52:31*
%MOMM*%
%LPD*%
G01*
G04 APERTURE LIST*
%ADD10C,0.150000*%
%ADD11C,0.120000*%
G04 APERTURE END LIST*
D10*
X107416666Y-90954819D02*
X107749999Y-90478628D01*
X107988094Y-90954819D02*
X107988094Y-89954819D01*
X107988094Y-89954819D02*
X107607142Y-89954819D01*
X107607142Y-89954819D02*
X107511904Y-90002438D01*
X107511904Y-90002438D02*
X107464285Y-90050057D01*
X107464285Y-90050057D02*
X107416666Y-90145295D01*
X107416666Y-90145295D02*
X107416666Y-90288152D01*
X107416666Y-90288152D02*
X107464285Y-90383390D01*
X107464285Y-90383390D02*
X107511904Y-90431009D01*
X107511904Y-90431009D02*
X107607142Y-90478628D01*
X107607142Y-90478628D02*
X107988094Y-90478628D01*
X107083332Y-89954819D02*
X106464285Y-89954819D01*
X106464285Y-89954819D02*
X106797618Y-90335771D01*
X106797618Y-90335771D02*
X106654761Y-90335771D01*
X106654761Y-90335771D02*
X106559523Y-90383390D01*
X106559523Y-90383390D02*
X106511904Y-90431009D01*
X106511904Y-90431009D02*
X106464285Y-90526247D01*
X106464285Y-90526247D02*
X106464285Y-90764342D01*
X106464285Y-90764342D02*
X106511904Y-90859580D01*
X106511904Y-90859580D02*
X106559523Y-90907200D01*
X106559523Y-90907200D02*
X106654761Y-90954819D01*
X106654761Y-90954819D02*
X106940475Y-90954819D01*
X106940475Y-90954819D02*
X107035713Y-90907200D01*
X107035713Y-90907200D02*
X107083332Y-90859580D01*
X109416666Y-90954819D02*
X109749999Y-90478628D01*
X109988094Y-90954819D02*
X109988094Y-89954819D01*
X109988094Y-89954819D02*
X109607142Y-89954819D01*
X109607142Y-89954819D02*
X109511904Y-90002438D01*
X109511904Y-90002438D02*
X109464285Y-90050057D01*
X109464285Y-90050057D02*
X109416666Y-90145295D01*
X109416666Y-90145295D02*
X109416666Y-90288152D01*
X109416666Y-90288152D02*
X109464285Y-90383390D01*
X109464285Y-90383390D02*
X109511904Y-90431009D01*
X109511904Y-90431009D02*
X109607142Y-90478628D01*
X109607142Y-90478628D02*
X109988094Y-90478628D01*
X108464285Y-90954819D02*
X109035713Y-90954819D01*
X108749999Y-90954819D02*
X108749999Y-89954819D01*
X108749999Y-89954819D02*
X108845237Y-90097676D01*
X108845237Y-90097676D02*
X108940475Y-90192914D01*
X108940475Y-90192914D02*
X109035713Y-90240533D01*
X95166666Y-90859580D02*
X95214285Y-90907200D01*
X95214285Y-90907200D02*
X95357142Y-90954819D01*
X95357142Y-90954819D02*
X95452380Y-90954819D01*
X95452380Y-90954819D02*
X95595237Y-90907200D01*
X95595237Y-90907200D02*
X95690475Y-90811961D01*
X95690475Y-90811961D02*
X95738094Y-90716723D01*
X95738094Y-90716723D02*
X95785713Y-90526247D01*
X95785713Y-90526247D02*
X95785713Y-90383390D01*
X95785713Y-90383390D02*
X95738094Y-90192914D01*
X95738094Y-90192914D02*
X95690475Y-90097676D01*
X95690475Y-90097676D02*
X95595237Y-90002438D01*
X95595237Y-90002438D02*
X95452380Y-89954819D01*
X95452380Y-89954819D02*
X95357142Y-89954819D01*
X95357142Y-89954819D02*
X95214285Y-90002438D01*
X95214285Y-90002438D02*
X95166666Y-90050057D01*
X94214285Y-90954819D02*
X94785713Y-90954819D01*
X94499999Y-90954819D02*
X94499999Y-89954819D01*
X94499999Y-89954819D02*
X94595237Y-90097676D01*
X94595237Y-90097676D02*
X94690475Y-90192914D01*
X94690475Y-90192914D02*
X94785713Y-90240533D01*
X92594819Y-45468095D02*
X91594819Y-45468095D01*
X92071009Y-45468095D02*
X92071009Y-46039523D01*
X92594819Y-46039523D02*
X91594819Y-46039523D01*
X91594819Y-46420476D02*
X91594819Y-47039523D01*
X91594819Y-47039523D02*
X91975771Y-46706190D01*
X91975771Y-46706190D02*
X91975771Y-46849047D01*
X91975771Y-46849047D02*
X92023390Y-46944285D01*
X92023390Y-46944285D02*
X92071009Y-46991904D01*
X92071009Y-46991904D02*
X92166247Y-47039523D01*
X92166247Y-47039523D02*
X92404342Y-47039523D01*
X92404342Y-47039523D02*
X92499580Y-46991904D01*
X92499580Y-46991904D02*
X92547200Y-46944285D01*
X92547200Y-46944285D02*
X92594819Y-46849047D01*
X92594819Y-46849047D02*
X92594819Y-46563333D01*
X92594819Y-46563333D02*
X92547200Y-46468095D01*
X92547200Y-46468095D02*
X92499580Y-46420476D01*
X101366666Y-90954819D02*
X101699999Y-90478628D01*
X101938094Y-90954819D02*
X101938094Y-89954819D01*
X101938094Y-89954819D02*
X101557142Y-89954819D01*
X101557142Y-89954819D02*
X101461904Y-90002438D01*
X101461904Y-90002438D02*
X101414285Y-90050057D01*
X101414285Y-90050057D02*
X101366666Y-90145295D01*
X101366666Y-90145295D02*
X101366666Y-90288152D01*
X101366666Y-90288152D02*
X101414285Y-90383390D01*
X101414285Y-90383390D02*
X101461904Y-90431009D01*
X101461904Y-90431009D02*
X101557142Y-90478628D01*
X101557142Y-90478628D02*
X101938094Y-90478628D01*
X100985713Y-90050057D02*
X100938094Y-90002438D01*
X100938094Y-90002438D02*
X100842856Y-89954819D01*
X100842856Y-89954819D02*
X100604761Y-89954819D01*
X100604761Y-89954819D02*
X100509523Y-90002438D01*
X100509523Y-90002438D02*
X100461904Y-90050057D01*
X100461904Y-90050057D02*
X100414285Y-90145295D01*
X100414285Y-90145295D02*
X100414285Y-90240533D01*
X100414285Y-90240533D02*
X100461904Y-90383390D01*
X100461904Y-90383390D02*
X101033332Y-90954819D01*
X101033332Y-90954819D02*
X100414285Y-90954819D01*
X104261938Y-91050057D02*
X104357176Y-91002438D01*
X104357176Y-91002438D02*
X104452414Y-90907200D01*
X104452414Y-90907200D02*
X104595271Y-90764342D01*
X104595271Y-90764342D02*
X104690509Y-90716723D01*
X104690509Y-90716723D02*
X104785747Y-90716723D01*
X104738128Y-90954819D02*
X104833366Y-90907200D01*
X104833366Y-90907200D02*
X104928604Y-90811961D01*
X104928604Y-90811961D02*
X104976223Y-90621485D01*
X104976223Y-90621485D02*
X104976223Y-90288152D01*
X104976223Y-90288152D02*
X104928604Y-90097676D01*
X104928604Y-90097676D02*
X104833366Y-90002438D01*
X104833366Y-90002438D02*
X104738128Y-89954819D01*
X104738128Y-89954819D02*
X104547652Y-89954819D01*
X104547652Y-89954819D02*
X104452414Y-90002438D01*
X104452414Y-90002438D02*
X104357176Y-90097676D01*
X104357176Y-90097676D02*
X104309557Y-90288152D01*
X104309557Y-90288152D02*
X104309557Y-90621485D01*
X104309557Y-90621485D02*
X104357176Y-90811961D01*
X104357176Y-90811961D02*
X104452414Y-90907200D01*
X104452414Y-90907200D02*
X104547652Y-90954819D01*
X104547652Y-90954819D02*
X104738128Y-90954819D01*
X103357176Y-90954819D02*
X103928604Y-90954819D01*
X103642890Y-90954819D02*
X103642890Y-89954819D01*
X103642890Y-89954819D02*
X103738128Y-90097676D01*
X103738128Y-90097676D02*
X103833366Y-90192914D01*
X103833366Y-90192914D02*
X103928604Y-90240533D01*
X97166666Y-90859580D02*
X97214285Y-90907200D01*
X97214285Y-90907200D02*
X97357142Y-90954819D01*
X97357142Y-90954819D02*
X97452380Y-90954819D01*
X97452380Y-90954819D02*
X97595237Y-90907200D01*
X97595237Y-90907200D02*
X97690475Y-90811961D01*
X97690475Y-90811961D02*
X97738094Y-90716723D01*
X97738094Y-90716723D02*
X97785713Y-90526247D01*
X97785713Y-90526247D02*
X97785713Y-90383390D01*
X97785713Y-90383390D02*
X97738094Y-90192914D01*
X97738094Y-90192914D02*
X97690475Y-90097676D01*
X97690475Y-90097676D02*
X97595237Y-90002438D01*
X97595237Y-90002438D02*
X97452380Y-89954819D01*
X97452380Y-89954819D02*
X97357142Y-89954819D01*
X97357142Y-89954819D02*
X97214285Y-90002438D01*
X97214285Y-90002438D02*
X97166666Y-90050057D01*
X96785713Y-90050057D02*
X96738094Y-90002438D01*
X96738094Y-90002438D02*
X96642856Y-89954819D01*
X96642856Y-89954819D02*
X96404761Y-89954819D01*
X96404761Y-89954819D02*
X96309523Y-90002438D01*
X96309523Y-90002438D02*
X96261904Y-90050057D01*
X96261904Y-90050057D02*
X96214285Y-90145295D01*
X96214285Y-90145295D02*
X96214285Y-90240533D01*
X96214285Y-90240533D02*
X96261904Y-90383390D01*
X96261904Y-90383390D02*
X96833332Y-90954819D01*
X96833332Y-90954819D02*
X96214285Y-90954819D01*
X99166666Y-90859580D02*
X99214285Y-90907200D01*
X99214285Y-90907200D02*
X99357142Y-90954819D01*
X99357142Y-90954819D02*
X99452380Y-90954819D01*
X99452380Y-90954819D02*
X99595237Y-90907200D01*
X99595237Y-90907200D02*
X99690475Y-90811961D01*
X99690475Y-90811961D02*
X99738094Y-90716723D01*
X99738094Y-90716723D02*
X99785713Y-90526247D01*
X99785713Y-90526247D02*
X99785713Y-90383390D01*
X99785713Y-90383390D02*
X99738094Y-90192914D01*
X99738094Y-90192914D02*
X99690475Y-90097676D01*
X99690475Y-90097676D02*
X99595237Y-90002438D01*
X99595237Y-90002438D02*
X99452380Y-89954819D01*
X99452380Y-89954819D02*
X99357142Y-89954819D01*
X99357142Y-89954819D02*
X99214285Y-90002438D01*
X99214285Y-90002438D02*
X99166666Y-90050057D01*
X98833332Y-89954819D02*
X98214285Y-89954819D01*
X98214285Y-89954819D02*
X98547618Y-90335771D01*
X98547618Y-90335771D02*
X98404761Y-90335771D01*
X98404761Y-90335771D02*
X98309523Y-90383390D01*
X98309523Y-90383390D02*
X98261904Y-90431009D01*
X98261904Y-90431009D02*
X98214285Y-90526247D01*
X98214285Y-90526247D02*
X98214285Y-90764342D01*
X98214285Y-90764342D02*
X98261904Y-90859580D01*
X98261904Y-90859580D02*
X98309523Y-90907200D01*
X98309523Y-90907200D02*
X98404761Y-90954819D01*
X98404761Y-90954819D02*
X98690475Y-90954819D01*
X98690475Y-90954819D02*
X98785713Y-90907200D01*
X98785713Y-90907200D02*
X98833332Y-90859580D01*
%TO.C,R3*%
D11*
X106500000Y-86400000D02*
X108000000Y-86400000D01*
X108000000Y-89600000D01*
X106500000Y-89600000D01*
X106500000Y-86400000D01*
%TO.C,R1*%
X108500000Y-86400000D02*
X110000000Y-86400000D01*
X110000000Y-89600000D01*
X108500000Y-89600000D01*
X108500000Y-86400000D01*
%TO.C,C1*%
X94250000Y-86400000D02*
X95750000Y-86400000D01*
X95750000Y-89600000D01*
X94250000Y-89600000D01*
X94250000Y-86400000D01*
%TO.C,H3*%
X93740000Y-42930000D02*
X117240000Y-42930000D01*
X117240000Y-49530000D01*
X93740000Y-49530000D01*
X93740000Y-42930000D01*
%TO.C,R2*%
X100450000Y-86400000D02*
X101950000Y-86400000D01*
X101950000Y-89600000D01*
X100450000Y-89600000D01*
X100450000Y-86400000D01*
%TO.C,Q1*%
X102666700Y-86500000D02*
X105666700Y-86500000D01*
X105666700Y-89500000D01*
X102666700Y-89500000D01*
X102666700Y-86500000D01*
%TO.C,C2*%
X96250000Y-86400000D02*
X97750000Y-86400000D01*
X97750000Y-89600000D01*
X96250000Y-89600000D01*
X96250000Y-86400000D01*
%TO.C,C3*%
X98250000Y-86400000D02*
X99750000Y-86400000D01*
X99750000Y-89600000D01*
X98250000Y-89600000D01*
X98250000Y-86400000D01*
%TD*%
M02*
