M48
; DRILL file KiCad 10.0.3 date 2026-06-09T15:52:45
; FORMAT={-:-/ absolute / metric / decimal}
; #@! TF.CreationDate,2026-06-09T15:52:45+08:00
; #@! TF.GenerationSoftware,Kicad,Pcbnew,10.0.3
; #@! TF.FileFunction,MixedPlating,1,2
FMAT,2
METRIC
; #@! TA.AperFunction,Plated,PTH,ViaDrill
T1C0.300
; #@! TA.AperFunction,Plated,PTH,ComponentDrill
T2C1.000
%
G90
G05
T1
X80.743Y-62.736
X80.954Y-66.019
X81.45Y-71.47
X89.391Y-84.633
X91.0Y-99.044
X92.3Y-66.375
X98.0Y-99.035
X98.638Y-90.081
X101.2Y-86.282
X102.0Y-101.459
X103.365Y-55.311
X104.179Y-85.913
T2
X78.0Y-44.0
X78.0Y-46.5
X78.0Y-49.0
X83.0Y-52.0
X88.0Y-44.0
X88.0Y-49.0
X95.34Y-44.96
X95.34Y-47.5
X97.88Y-44.96
X97.88Y-47.5
X100.42Y-44.96
X100.42Y-47.5
X102.96Y-44.96
X102.96Y-47.5
X105.5Y-44.96
X105.5Y-47.5
X108.04Y-44.96
X108.04Y-47.5
X110.58Y-44.96
X110.58Y-47.5
X113.12Y-44.96
X113.12Y-47.5
X115.66Y-44.96
X115.66Y-47.5
M30
